<svg xmlns="http://www.w3.org/2000/svg" width="40.459" height="31.468" viewBox="0 0 40.459 31.468"><path d="M37.088,32H3.372A3.372,3.372,0,0,0,0,35.372V60.1a3.372,3.372,0,0,0,3.372,3.372H37.088A3.372,3.372,0,0,0,40.459,60.1V35.372A3.372,3.372,0,0,0,37.088,32ZM12.363,38.743a4.5,4.5,0,1,1-4.5,4.5A4.5,4.5,0,0,1,12.363,38.743ZM20.23,55.376a1.473,1.473,0,0,1-1.573,1.349H6.069A1.473,1.473,0,0,1,4.5,55.376V54.028c0-2.234,2.114-4.046,4.72-4.046h.351a7.235,7.235,0,0,0,5.591,0h.351c2.606,0,4.72,1.812,4.72,4.046Zm15.734-3.709a.564.564,0,0,1-.562.562H25.287a.564.564,0,0,1-.562-.562V50.544a.564.564,0,0,1,.562-.562H35.4a.564.564,0,0,1,.562.562Zm0-4.5a.564.564,0,0,1-.562.562H25.287a.564.564,0,0,1-.562-.562V46.048a.564.564,0,0,1,.562-.562H35.4a.564.564,0,0,1,.562.562Zm0-4.5a.564.564,0,0,1-.562.562H25.287a.564.564,0,0,1-.562-.562V41.553a.564.564,0,0,1,.562-.562H35.4a.564.564,0,0,1,.562.562Z" transform="translate(0 -32)"/></svg>