<svg xmlns="http://www.w3.org/2000/svg" width="39.239" height="23.543" viewBox="0 0 39.239 23.543">
  <path id="bicycle" d="M31.422,71.848a7.829,7.829,0,0,0-2.847.521L23.812,64.7a1.471,1.471,0,0,0-1.25-.7H18.638a.981.981,0,0,0-.981.981v.981a.981.981,0,0,0,.981.981h3.105l.913,1.471H15.7v-.981a.981.981,0,0,0-.981-.981H9.352a1.5,1.5,0,0,0-1.5,1.5A1.471,1.471,0,0,0,9.319,69.4h2.987l-1.8,2.913a7.848,7.848,0,1,0,4.945,9.349h3.19a1.471,1.471,0,0,0,1.251-.7l5.27-8.514.916,1.476a7.827,7.827,0,0,0-2.533,5.79,7.949,7.949,0,0,0,7.77,7.831,7.848,7.848,0,1,0,.109-15.695ZM11.449,76.371a4.895,4.895,0,0,1,1.2,2.344H10Zm-3.6,8.23A4.9,4.9,0,1,1,8.9,74.9l-2.79,4.507a1.472,1.472,0,0,0,1.251,2.246h4.985A4.911,4.911,0,0,1,7.848,84.6Zm9.971-5.886H15.634a7.832,7.832,0,0,0-2.6-4.906l1.517-2.451h7.82l-4.555,7.357Zm13.308,5.879A4.9,4.9,0,0,1,27.675,76.5L30.4,80.888a.981.981,0,0,0,1.351.316l.833-.517a.981.981,0,0,0,.316-1.351l-2.726-4.392a4.905,4.905,0,1,1,.953,9.65Z" transform="translate(0 -64)"/>
</svg>
