<svg xmlns="http://www.w3.org/2000/svg" width="40.422" height="31.44" viewBox="0 0 40.422 31.44"><path d="M38.052,32c-3.846.218-11.49,1.013-16.208,3.9a1.079,1.079,0,0,0-.51.924V62.361a1.111,1.111,0,0,0,1.634.947c4.855-2.444,11.876-3.11,15.348-3.293a2.189,2.189,0,0,0,2.107-2.152V34.154A2.2,2.2,0,0,0,38.052,32ZM18.578,35.9C13.86,33.012,6.216,32.218,2.371,32A2.2,2.2,0,0,0,0,34.154v23.71a2.188,2.188,0,0,0,2.107,2.152c3.473.182,10.5.85,15.353,3.295a1.107,1.107,0,0,0,1.629-.945V36.812A1.057,1.057,0,0,0,18.578,35.9Z" transform="translate(0 -31.996)"/></svg>