<svg xmlns="http://www.w3.org/2000/svg" width="23.618" height="23.618" viewBox="0 0 23.618 23.618">
  <path id="bus" d="M22.511,5.9h-.369V3.69C22.142,1.624,17.566,0,11.809,0S1.476,1.624,1.476,3.69V5.9H1.107A1.107,1.107,0,0,0,0,7.012V10.7a1.107,1.107,0,0,0,1.107,1.107h.369V19.19a1.476,1.476,0,0,0,1.476,1.476v1.476a1.476,1.476,0,0,0,1.476,1.476H5.9a1.476,1.476,0,0,0,1.476-1.476V20.666h8.857v1.476a1.476,1.476,0,0,0,1.476,1.476H19.19a1.476,1.476,0,0,0,1.476-1.476V20.666h.3a1.164,1.164,0,0,0,1.181-1.181V11.809h.369A1.107,1.107,0,0,0,23.618,10.7V7.012A1.107,1.107,0,0,0,22.511,5.9ZM5.166,18.451a1.476,1.476,0,1,1,1.476-1.476A1.476,1.476,0,0,1,5.166,18.451ZM5.9,13.285a1.476,1.476,0,0,1-1.476-1.476V5.9A1.476,1.476,0,0,1,5.9,4.428H17.713A1.476,1.476,0,0,1,19.19,5.9v5.9a1.476,1.476,0,0,1-1.476,1.476Zm12.547,5.166a1.476,1.476,0,1,1,1.476-1.476A1.476,1.476,0,0,1,18.451,18.451Z"/>
</svg>
