<svg xmlns="http://www.w3.org/2000/svg" width="32.1" height="24.075" viewBox="0 0 32.1 24.075"><path d="M31.35,71.022H27.6l-1.043-2.608A6.986,6.986,0,0,0,20.034,64H12.072a6.988,6.988,0,0,0-6.52,4.414L4.509,71.022H.756a.752.752,0,0,0-.73.935l.376,1.5a.752.752,0,0,0,.73.57H2.391A3.984,3.984,0,0,0,1.007,77.04V80.05a3.98,3.98,0,0,0,1,2.629v3.39a2.006,2.006,0,0,0,2.006,2.006H6.022a2.006,2.006,0,0,0,2.006-2.006V84.062h16.05v2.006a2.006,2.006,0,0,0,2.006,2.006h2.006A2.006,2.006,0,0,0,30.1,86.068v-3.39a3.977,3.977,0,0,0,1-2.629V77.04a3.986,3.986,0,0,0-1.384-3.009h1.258a.752.752,0,0,0,.73-.57l.376-1.5a.753.753,0,0,0-.73-.935ZM9.278,69.9a3.01,3.01,0,0,1,2.794-1.891h7.962A3.01,3.01,0,0,1,22.829,69.9l1.25,3.124H8.028ZM6.022,80.037a2,2,0,1,1,0-4,3.86,3.86,0,0,1,3.009,3c0,1.2-1.806,1-3.009,1Zm20.062,0c-1.2,0-3.009.2-3.009-1a3.86,3.86,0,0,1,3.009-3,2,2,0,1,1,0,4Z" transform="translate(-0.004 -64)"/></svg>