<svg xmlns="http://www.w3.org/2000/svg" width="23.197" height="28.996" viewBox="0 0 23.197 28.996"><path d="M22.231,32H18.848a.967.967,0,0,0-.967.967v2.9h-2.9v-2.9A.967.967,0,0,0,14.015,32H9.182a.967.967,0,0,0-.967.967v2.9H5.322v-2.9A.967.967,0,0,0,4.356,32H.967A.967.967,0,0,0,0,32.967V43.6l3.866,1.933a50.368,50.368,0,0,1-.8,9.665H20.129a50.591,50.591,0,0,1-.8-9.665L23.2,43.6V32.967A.967.967,0,0,0,22.231,32Zm-8.7,17.4H9.665V45.532a1.933,1.933,0,1,1,3.866,0Zm8.7,7.732H.967A.967.967,0,0,0,0,58.1V60.03A.967.967,0,0,0,.967,61H22.231a.967.967,0,0,0,.967-.967V58.1A.967.967,0,0,0,22.231,57.13Z" transform="translate(0 -32)"/></svg>