<svg xmlns="http://www.w3.org/2000/svg" width="35.347" height="31.414" viewBox="0 0 35.347 31.414"><path d="M24.706,5.2l5.535,5.535a.6.6,0,0,1,0,.847l-13.4,13.4-5.695.632A1.194,1.194,0,0,1,9.825,24.3l.632-5.695,13.4-13.4A.6.6,0,0,1,24.706,5.2Zm9.941-1.405L31.653.8a2.4,2.4,0,0,0-3.387,0L26.093,2.972a.6.6,0,0,0,0,.847l5.535,5.535a.6.6,0,0,0,.847,0l2.172-2.172a2.4,2.4,0,0,0,0-3.387ZM23.565,21.339v6.247H3.927V7.949h14.1a.755.755,0,0,0,.522-.215l2.455-2.455a.736.736,0,0,0-.522-1.258H2.946A2.946,2.946,0,0,0,0,6.967v21.6a2.946,2.946,0,0,0,2.946,2.946h21.6a2.946,2.946,0,0,0,2.946-2.946V18.884a.738.738,0,0,0-1.258-.522L23.78,20.817A.755.755,0,0,0,23.565,21.339Z" transform="translate(0 -0.1)"/></svg>