<svg xmlns="http://www.w3.org/2000/svg" width="38.631" height="28.973" viewBox="0 0 38.631 28.973"><path d="M37.9,73.567a.454.454,0,0,1,.732.355v15.43a3.623,3.623,0,0,1-3.622,3.622H3.622A3.623,3.623,0,0,1,0,89.352V73.929a.451.451,0,0,1,.732-.355c1.69,1.313,3.931,2.98,11.627,8.571,1.592,1.162,4.278,3.607,6.957,3.591,2.694.023,5.432-2.475,6.964-3.591C33.976,76.555,36.209,74.88,37.9,73.567ZM19.315,83.315c1.75.03,4.271-2.2,5.538-3.124,10.012-7.266,10.774-7.9,13.083-9.711a1.806,1.806,0,0,0,.694-1.426V67.622A3.623,3.623,0,0,0,35.009,64H3.622A3.623,3.623,0,0,0,0,67.622v1.434a1.817,1.817,0,0,0,.694,1.426c2.309,1.8,3.071,2.445,13.083,9.711,1.268.921,3.788,3.154,5.538,3.124Z" transform="translate(0 -64)"/></svg>