<svg xmlns="http://www.w3.org/2000/svg" width="31.216" height="20.811" viewBox="0 0 31.216 20.811"><path d="M31.028,73.614A17.382,17.382,0,0,0,15.608,64,17.385,17.385,0,0,0,.189,73.615a1.753,1.753,0,0,0,0,1.582,17.382,17.382,0,0,0,15.419,9.614A17.385,17.385,0,0,0,31.028,75.2a1.753,1.753,0,0,0,0-1.582Zm-15.419,8.6a7.8,7.8,0,1,1,7.8-7.8A7.8,7.8,0,0,1,15.608,82.209Zm0-13.007a5.166,5.166,0,0,0-1.372.205,2.593,2.593,0,0,1-3.626,3.626,5.191,5.191,0,1,0,5-3.831Z" transform="translate(-0.001 -64)"/></svg>