<svg xmlns="http://www.w3.org/2000/svg" width="28.845" height="29.311" viewBox="0 0 28.845 29.311"><path d="M21.463,10.826v3.9c1.494.338,2.822.893,4.213,1.277V12.1C24.188,11.764,22.849,11.209,21.463,10.826ZM34.246,3.785a16.715,16.715,0,0,1-6.7,1.826c-3.062,0-5.6-1.992-9.456-1.992a11.13,11.13,0,0,0-3.893.687A3.206,3.206,0,1,0,9.374,5.788v22.1a1.371,1.371,0,0,0,1.374,1.374h.916a1.371,1.371,0,0,0,1.374-1.374v-5.4a15.96,15.96,0,0,1,6.549-1.265c3.068,0,5.6,1.992,9.456,1.992a11.961,11.961,0,0,0,7.012-2.341,1.826,1.826,0,0,0,.79-1.511V5.445a1.829,1.829,0,0,0-2.6-1.66Zm-17,14.8a18.034,18.034,0,0,0-4.213.95V15.5a16.376,16.376,0,0,1,4.213-1Zm16.852-7.7a18.26,18.26,0,0,1-4.213,1.368v4.07A10.639,10.639,0,0,0,34.1,14.838v4.036a9.25,9.25,0,0,1-4.213,1.551v-4.1a9.682,9.682,0,0,1-4.213-.321v3.858a33.4,33.4,0,0,0-4.213-1.219V14.724a12.724,12.724,0,0,0-4.213-.218V10.5a20.2,20.2,0,0,0-4.213,1.2V7.66A16.392,16.392,0,0,1,17.25,6.4v4.1a9.737,9.737,0,0,1,4.213.326V6.968a32.588,32.588,0,0,0,4.213,1.219V12.1a10.9,10.9,0,0,0,4.213.155V8.141A20.254,20.254,0,0,0,34.1,6.853Z" transform="translate(-8 0.047)"/></svg>