<svg xmlns="http://www.w3.org/2000/svg" width="30.959" height="24.075" viewBox="0 0 30.959 24.075"><path d="M15.054,38.3,5.145,46.457v8.808a.86.86,0,0,0,.86.86l6.023-.016a.86.86,0,0,0,.856-.86V50.105a.86.86,0,0,1,.86-.86h3.44a.86.86,0,0,1,.86.86v5.14a.86.86,0,0,0,.86.863l6.02.017a.86.86,0,0,0,.86-.86V46.451L15.876,38.3a.655.655,0,0,0-.822,0Zm15.652,5.547-4.493-3.7V32.695a.645.645,0,0,0-.645-.645h-3.01a.645.645,0,0,0-.645.645v3.9L17.1,32.639a2.58,2.58,0,0,0-3.278,0l-13.6,11.2a.645.645,0,0,0-.086.908L1.5,46.417a.645.645,0,0,0,.909.088L15.054,36.092a.655.655,0,0,1,.822,0L28.518,46.5a.645.645,0,0,0,.908-.086l1.37-1.666a.645.645,0,0,0-.091-.91Z" transform="translate(0.015 -32.05)"/></svg>