<svg xmlns="http://www.w3.org/2000/svg" width="28.61" height="25.431" viewBox="0 0 28.61 25.431">
  <path id="house-damage" d="M14.306,5.71,3.452,15.284a2.3,2.3,0,0,1-.272.166v9.186a.794.794,0,0,0,.795.795h7.412L9.538,21.814l5.171-3.179-2.988-5.922,7.354,6.794L13.9,22.686l1.983,2.744h8.751a.794.794,0,0,0,.795-.795V15.452a2.317,2.317,0,0,1-.261-.159Zm14.041,6.026L25.432,9.161V2.384a.794.794,0,0,0-.795-.795H21.459a.794.794,0,0,0-.795.795V4.952L15.635.512a1.979,1.979,0,0,0-2.655,0L.265,11.736a.8.8,0,0,0-.06,1.123l1.063,1.183a.8.8,0,0,0,1.123.06L13.781,4.054a.8.8,0,0,1,1.051,0L26.223,14.1a.8.8,0,0,0,1.123-.06l1.063-1.183A.794.794,0,0,0,28.347,11.736Z" transform="translate(-0.002)"/>
</svg>
