<svg xmlns="http://www.w3.org/2000/svg" width="24.907" height="24.908" viewBox="0 0 24.907 24.908">
  <path id="map-signs" d="M24.682,4.12,22.575,2.013a1.557,1.557,0,0,0-1.1-.456H14.013V.778A.778.778,0,0,0,13.235,0H11.678A.778.778,0,0,0,10.9.778v.778H2.727A1.168,1.168,0,0,0,1.559,2.724V6.616A1.168,1.168,0,0,0,2.727,7.784H21.474a1.558,1.558,0,0,0,1.1-.456l2.107-2.107a.778.778,0,0,0,0-1.1ZM10.9,24.129a.778.778,0,0,0,.778.778h1.557a.778.778,0,0,0,.778-.778V18.681H10.9ZM22.186,10.9H14.013V9.34H10.9V10.9H3.438a1.558,1.558,0,0,0-1.1.456L.231,13.46a.778.778,0,0,0,0,1.1l2.107,2.107a1.557,1.557,0,0,0,1.1.456H22.186a1.168,1.168,0,0,0,1.168-1.168V12.065A1.168,1.168,0,0,0,22.186,10.9Z" transform="translate(-0.002)"/>
</svg>
