<svg xmlns="http://www.w3.org/2000/svg" width="18" height="18" viewBox="0 0 18 18">
  <path id="pencil-ruler" d="M3.843,8.57,8.575,3.839,7.023,2.288,4.855,4.457a.278.278,0,0,1-.394,0l-.394-.394a.278.278,0,0,1,0-.394L6.235,1.5,5.053.317a1.115,1.115,0,0,0-1.577,0L.322,3.471a1.115,1.115,0,0,0,0,1.577L3.843,8.57ZM17.5,4.464a1.689,1.689,0,0,0,0-2.388L15.909.485a1.689,1.689,0,0,0-2.389,0L11.9,2.1l3.98,3.98L17.5,4.464ZM11.107,2.9.666,13.338l-.66,3.777a.746.746,0,0,0,.864.863l3.777-.662L15.087,6.877Zm6.561,10.034L16.486,11.75l-2.168,2.168a.278.278,0,0,1-.394,0l-.394-.394a.279.279,0,0,1,0-.394L15.7,10.962,14.146,9.41,9.414,14.14l3.523,3.523a1.115,1.115,0,0,0,1.577,0l3.154-3.153a1.115,1.115,0,0,0,0-1.577Z" transform="translate(0.005 0.01)"/>
</svg>
