<svg xmlns="http://www.w3.org/2000/svg" width="57.132" height="57.132" viewBox="0 0 57.132 57.132"><defs><style>.a{fill:#262b31;}</style></defs><path class="a" d="M53.051,54.445H34.687V36.081A4.081,4.081,0,0,0,30.606,32H26.525a4.081,4.081,0,0,0-4.081,4.081V54.445H4.081A4.081,4.081,0,0,0,0,58.525v4.081a4.081,4.081,0,0,0,4.081,4.081H22.445V85.051a4.081,4.081,0,0,0,4.081,4.081h4.081a4.081,4.081,0,0,0,4.081-4.081V66.687H53.051a4.081,4.081,0,0,0,4.081-4.081V58.525A4.081,4.081,0,0,0,53.051,54.445Z" transform="translate(0 -32)"/></svg>