<svg xmlns="http://www.w3.org/2000/svg" width="15.172" height="22.075" viewBox="0 0 15.172 22.075"><path d="M33.2,0a8.353,8.353,0,0,0-7.42,3.925,1.036,1.036,0,0,0,.223,1.417l1.86,1.41A1.035,1.035,0,0,0,29.3,6.573c1.08-1.353,1.881-2.132,3.568-2.132,1.326,0,2.967.854,2.967,2.14,0,.972-.8,1.472-2.112,2.206-1.527.856-3.548,1.922-3.548,4.588V13.8a1.035,1.035,0,0,0,1.035,1.035h3.125A1.035,1.035,0,0,0,35.369,13.8v-.249c0-1.848,5.4-1.925,5.4-6.925C40.77,2.857,36.863,0,33.2,0Zm-.432,16.1a2.987,2.987,0,1,0,2.987,2.987A2.99,2.99,0,0,0,32.772,16.1Z" transform="translate(-25.597)"/></svg>