<svg xmlns="http://www.w3.org/2000/svg" width="21.153" height="21.153" viewBox="0 0 21.153 21.153">
  <path id="route" d="M17.187,13.22H13.22a1.322,1.322,0,0,1,0-2.644h3.966s3.966-4.421,3.966-6.61a3.966,3.966,0,0,0-7.932,0c0,1.054.917,2.619,1.872,3.966H13.22a3.966,3.966,0,0,0,0,7.932h3.966a1.322,1.322,0,1,1,0,2.644H7.664A28.523,28.523,0,0,1,5.71,21.153H17.187a3.966,3.966,0,1,0,0-7.932Zm0-10.576a1.322,1.322,0,1,1-1.322,1.322A1.321,1.321,0,0,1,17.187,2.644ZM3.966,10.576A3.967,3.967,0,0,0,0,14.542c0,2.19,3.966,6.61,3.966,6.61s3.966-4.421,3.966-6.61A3.967,3.967,0,0,0,3.966,10.576Zm0,5.288a1.322,1.322,0,1,1,1.322-1.322A1.321,1.321,0,0,1,3.966,15.865Z"/>
</svg>
