<svg xmlns="http://www.w3.org/2000/svg" width="31.438" height="31.438" viewBox="0 0 31.438 31.438"><path d="M23.719,8A15.719,15.719,0,1,0,39.438,23.719,15.716,15.716,0,0,0,23.719,8Zm7.707,19.845a.761.761,0,0,1,0,1.077l-2.51,2.5a.761.761,0,0,1-1.077,0l-4.12-4.158-4.126,4.158a.761.761,0,0,1-1.077,0l-2.5-2.51a.761.761,0,0,1,0-1.077l4.158-4.12-4.158-4.126a.761.761,0,0,1,0-1.077l2.51-2.51a.761.761,0,0,1,1.077,0l4.12,4.164,4.126-4.158a.761.761,0,0,1,1.077,0l2.51,2.51a.761.761,0,0,1,0,1.077l-4.164,4.12Z" transform="translate(-8 -8)"/></svg>