<svg xmlns="http://www.w3.org/2000/svg" width="21.065" height="24.075" viewBox="0 0 21.065 24.075"><path d="M21.065,4.514V16.551c0,2.436-2.9,4.514-6.114,4.514L17.913,23.4a.376.376,0,0,1-.233.671H3.386a.376.376,0,0,1-.233-.671l2.961-2.338C2.907,21.065,0,18.994,0,16.551V4.514C0,2.021,3.009,0,6.019,0h9.028C18.1,0,21.065,2.021,21.065,4.514Zm-2.257,6.395V5.643A1.128,1.128,0,0,0,17.68,4.514H3.386A1.128,1.128,0,0,0,2.257,5.643v5.266a1.128,1.128,0,0,0,1.129,1.129H17.68A1.128,1.128,0,0,0,18.808,10.909Zm-8.276,3.009a2.633,2.633,0,1,0,2.633,2.633A2.633,2.633,0,0,0,10.533,13.918Z"/></svg>