<svg xmlns="http://www.w3.org/2000/svg" width="27.508" height="31.438" viewBox="0 0 27.508 31.438"><path d="M1.965,28.49a2.947,2.947,0,0,0,2.947,2.947H22.6a2.947,2.947,0,0,0,2.947-2.947V7.859H1.965Zm16.7-15.719a.982.982,0,0,1,1.965,0V26.525a.982.982,0,1,1-1.965,0Zm-5.895,0a.982.982,0,1,1,1.965,0V26.525a.982.982,0,1,1-1.965,0Zm-5.895,0a.982.982,0,0,1,1.965,0V26.525a.982.982,0,1,1-1.965,0ZM26.525,1.965H19.157L18.58.816A1.474,1.474,0,0,0,17.26,0H10.242A1.456,1.456,0,0,0,8.928.816L8.351,1.965H.982A.982.982,0,0,0,0,2.947V4.912a.982.982,0,0,0,.982.982H26.525a.982.982,0,0,0,.982-.982V2.947A.982.982,0,0,0,26.525,1.965Z" transform="translate(0 0)"/></svg>