<svg xmlns="http://www.w3.org/2000/svg" width="18.129" height="29.005" viewBox="0 0 18.129 29.005"><path d="M11.805,5.438A2.719,2.719,0,1,0,9.086,2.719,2.72,2.72,0,0,0,11.805,5.438Zm5.353,8.445-1.32-.668-.549-1.665A6.176,6.176,0,0,0,9.5,7.25c-2.039-.006-3.166.572-5.285,1.427A5.4,5.4,0,0,0,1.4,11.295l-.38.77a1.818,1.818,0,0,0,.8,2.43,1.788,1.788,0,0,0,2.407-.81l.38-.77a1.8,1.8,0,0,1,.935-.872l1.518-.612L6.2,14.869A3.638,3.638,0,0,0,7.047,18.2l3.393,3.7a3.655,3.655,0,0,1,.844,1.569l1.037,4.152a1.813,1.813,0,0,0,3.518-.878l-1.257-5.041a3.623,3.623,0,0,0-.844-1.569L11.16,17.321l.974-3.891.312.935a3.612,3.612,0,0,0,1.8,2.1l1.32.668a1.788,1.788,0,0,0,2.407-.81,1.834,1.834,0,0,0-.81-2.436ZM4.192,21.853a3.515,3.515,0,0,1-.8,1.218L.556,25.908a1.812,1.812,0,0,0,2.56,2.566L6.481,25.11a3.682,3.682,0,0,0,.8-1.218l.765-1.915c-3.132-3.416-2.192-2.368-2.685-3.042Z" transform="translate(-0.025)"/></svg>