<?xml version="1.0" standalone="no"?>
<!DOCTYPE svg PUBLIC "-//W3C//DTD SVG 1.1//EN" "http://www.w3.org/Graphics/SVG/1.1/DTD/svg11.dtd" >
<svg xmlns="http://www.w3.org/2000/svg">
<metadata>Generated by IcoMoon</metadata>
<defs>
<font id="icomoon" horiz-adv-x="1024">
<font-face units-per-em="1024" ascent="960" descent="-64" />
<missing-glyph horiz-adv-x="1024" />
<glyph unicode="&#x20;" horiz-adv-x="512" d="" />
<glyph unicode="&#xe900;" glyph-name="address-card" d="M949.453 844.8h-863.13c-47.675 0-86.323-38.648-86.323-86.323v0-633.037c0-47.675 38.648-86.323 86.323-86.323v0h863.13c47.664 0.015 86.298 38.657 86.298 86.323v633.037c0 47.666-38.634 86.309-86.296 86.323h-0.001zM316.493 672.179c63.623 0 115.2-51.577 115.2-115.2s-51.577-115.2-115.2-115.2c-63.623 0-115.2 51.577-115.2 115.2v0c0 63.623 51.577 115.2 115.2 115.2v0zM517.888 246.374c-1.642-19.459-17.841-34.63-37.583-34.63-0.945 0-1.882 0.035-2.81 0.103l0.124-0.007h-322.253c-0.773-0.056-1.675-0.089-2.584-0.089-19.74 0-35.937 15.168-37.573 34.484l-0.009 0.139v34.509c0 57.19 54.118 103.578 120.832 103.578h8.986c21.132-9.095 45.731-14.384 71.565-14.384s50.433 5.289 72.773 14.844l-1.208-0.459h8.986c66.714 0 120.832-46.387 120.832-103.578zM920.678 341.325c-0.029-7.934-6.453-14.358-14.384-14.387h-258.947c-7.934 0.029-14.358 6.453-14.387 14.384v28.752c0.029 7.934 6.453 14.358 14.384 14.387h258.896c7.934-0.029 14.358-6.453 14.387-14.384v-0.003zM920.678 456.525c-0.029-7.934-6.453-14.358-14.384-14.387h-258.947c-7.934 0.029-14.358 6.453-14.387 14.384v28.649c0.029 7.934 6.453 14.358 14.384 14.387h258.896c7.934-0.029 14.358-6.453 14.387-14.384v-0.003zM920.678 571.725c-0.029-7.934-6.453-14.358-14.384-14.387h-258.947c-7.934 0.029-14.358 6.453-14.387 14.384v28.521c0.029 7.934 6.453 14.358 14.384 14.387h258.896c7.934-0.029 14.358-6.453 14.387-14.384v-0.003z" />
<glyph unicode="&#xe901;" glyph-name="arrow-down" d="M461.895 138.787l-439.119 439.155c-14.058 13.983-22.759 33.341-22.759 54.731s8.7 40.748 22.756 54.728l72.989 72.989c13.983 14.058 33.341 22.759 54.731 22.759s40.748-8.7 54.728-22.756l0.003-0.003 311.578-311.084 311.261 311.261c13.983 14.058 33.341 22.759 54.731 22.759s40.748-8.7 54.728-22.756l0.003-0.003 73.304-72.986c14.058-13.983 22.759-33.341 22.759-54.731s-8.7-40.748-22.756-54.728l-439.158-439.017c-14.021-14.232-33.505-23.049-55.047-23.049-21.385 0-40.741 8.689-54.73 22.729l-0.002 0.002z" />
<glyph unicode="&#xe902;" glyph-name="arrow-left" d="M199.292 498.105l439.155 439.119c13.983 14.058 33.341 22.759 54.731 22.759s40.748-8.7 54.728-22.756l72.989-72.989c14.058-13.983 22.759-33.341 22.759-54.731s-8.7-40.748-22.756-54.728l-0.003-0.003-311.084-311.578 311.261-311.261c14.058-13.983 22.759-33.341 22.759-54.731s-8.7-40.748-22.756-54.728l-0.003-0.003-72.986-73.304c-13.983-14.058-33.341-22.759-54.731-22.759s-40.748 8.7-54.728 22.756l-439.017 439.158c-14.232 14.021-23.049 33.505-23.049 55.047 0 21.385 8.689 40.741 22.729 54.73l0.002 0.002z" />
<glyph unicode="&#xe903;" glyph-name="arrow-right" d="M819.412 389.738l-438.131-438.237c-13.951-14.027-33.266-22.709-54.607-22.709s-40.656 8.681-54.604 22.705l-72.813 72.813c-14.027 13.951-22.709 33.266-22.709 54.607s8.681 40.656 22.705 54.604l310.557 310.557-310.554 310.554c-14.027 13.951-22.709 33.266-22.709 54.607s8.681 40.656 22.705 54.604l0.003 0.003 72.492 73.446c13.951 14.027 33.266 22.709 54.607 22.709s40.656-8.681 54.604-22.705l438.098-438.098c14.19-13.988 22.98-33.42 22.98-54.906 0-21.311-8.648-40.602-22.626-54.555l-0.001-0.001z" />
<glyph unicode="&#xe904;" glyph-name="arrow-up" d="M571.71 760.708l439.119-439.155c14.058-13.983 22.759-33.341 22.759-54.731s-8.7-40.748-22.756-54.728l-72.989-72.989c-13.983-14.058-33.341-22.759-54.731-22.759s-40.748 8.7-54.728 22.756l-0.003 0.003-311.578 311.084-311.261-311.261c-13.983-14.058-33.341-22.759-54.731-22.759s-40.748 8.7-54.728 22.756l-0.003 0.003-73.304 72.986c-14.058 13.983-22.759 33.341-22.759 54.731s8.7 40.748 22.756 54.728l439.158 439.017c14.021 14.232 33.505 23.049 55.047 23.049 21.385 0 40.741-8.689 54.73-22.729l0.002-0.002z" />
<glyph unicode="&#xe905;" glyph-name="book-open" d="M974.131 844.698c-98.458-5.581-294.144-25.933-414.925-99.84-7.889-4.955-13.057-13.609-13.057-23.47 0-0.065 0-0.13 0.001-0.194v0.010-653.747c0.469-15.341 13.018-27.598 28.429-27.598 4.906 0 9.523 1.242 13.551 3.43l-0.15-0.074c124.288 62.566 304.026 79.616 392.909 84.301 29.72 1.145 53.441 25.268 53.939 55.043l0.001 0.048v606.95c-0.566 30.669-25.56 55.313-56.311 55.313-1.544 0-3.073-0.062-4.586-0.184l0.199 0.013zM475.597 744.858c-120.781 73.933-316.467 94.259-414.899 99.84-1.313 0.109-2.843 0.171-4.387 0.171-30.751 0-55.745-24.645-56.31-55.261l-0.001-0.053v-606.976c0.485-29.829 24.214-53.959 53.835-55.088l0.104-0.003c88.909-4.659 268.8-21.76 393.037-84.352 3.87-2.112 8.477-3.354 13.374-3.354 15.373 0 27.886 12.24 28.327 27.506l0.001 0.041v654.182c0 0.053 0.001 0.115 0.001 0.177 0 9.78-5.189 18.349-12.964 23.102l-0.119 0.067z" />
<glyph unicode="&#xe906;" glyph-name="check" d="M346.243 83.43l-331.303 331.33c-9.223 9.223-14.927 21.964-14.927 36.037s5.704 26.814 14.927 36.037l72.074 72.074c9.223 9.223 21.964 14.927 36.037 14.927s26.814-5.704 36.037-14.927l223.179-223.179 478.077 478.050c9.223 9.223 21.964 14.927 36.037 14.927s26.814-5.704 36.037-14.927l72.074-72.074c9.223-9.223 14.927-21.964 14.927-36.037s-5.704-26.814-14.927-36.037l-586.148-586.201c-9.223-9.223-21.964-14.927-36.037-14.927s-26.814 5.704-36.037 14.927v0z" />
<glyph unicode="&#xe907;" glyph-name="chess-rook" d="M890.915 960h-119.455c-18.858 0-34.145-15.287-34.145-34.145v0-102.4h-102.4v102.4c0 18.845-15.267 34.125-34.108 34.145h-170.657c-18.858 0-34.145-15.287-34.145-34.145v0-102.4h-102.153v102.4c0 18.845-15.267 34.125-34.108 34.145h-119.669c-18.858 0-34.145-15.287-34.145-34.145v0-375.455l136.51-68.255c0.108-7.317 0.17-15.955 0.17-24.608 0-111.936-10.341-221.456-30.119-327.658l1.701 10.991h602.5c-18.072 95.406-28.409 205.156-28.409 317.319 0 8.422 0.058 16.831 0.174 25.225l-0.014-1.27 136.686 68.255v375.455c0 0 0 0 0 0 0 18.858-15.287 34.145-34.145 34.145-0.025 0-0.050 0-0.074 0h0.004zM583.715 345.6h-136.51v136.58c0 37.696 30.559 68.255 68.255 68.255s68.255-30.559 68.255-68.255v0zM890.915 72.58h-750.839c-18.858 0-34.145-15.287-34.145-34.145 0-0.012 0-0.025 0-0.037v0.002-68.149c0-0.031 0-0.069 0-0.106 0-18.858 15.287-34.145 34.145-34.145 0 0 0 0 0 0h750.839c18.858 0 34.145 15.287 34.145 34.145v0 68.255c0 0.031 0 0.069 0 0.106 0 18.858-15.287 34.145-34.145 34.145 0 0 0 0 0 0v0z" />
<glyph unicode="&#xe908;" glyph-name="compass" d="M465.289 494.711c-11.955-11.955-19.349-28.47-19.349-46.712 0-36.484 29.576-66.060 66.060-66.060s66.060 29.576 66.060 66.060c0 18.242-7.394 34.757-19.349 46.712v0c-11.955 11.954-28.469 19.348-46.711 19.348s-34.757-7.394-46.711-19.348v0zM511.967 960c-282.756-0.018-511.967-229.242-511.967-512 0-282.77 229.23-512 512-512s512 229.23 512 512v0c0 282.77-229.23 512-512 512-0.011 0-0.023 0-0.034 0h0.001zM772.56 654.324l-136.192-298.021c-6.723-14.478-18.097-25.851-32.168-32.404l-0.406-0.17-297.988-136.16c-4.989-2.342-10.834-3.708-16.998-3.708-22.542 0-40.815 18.274-40.815 40.815 0 6.164 1.367 12.010 3.813 17.249l-0.105-0.251 135.899 298.118c6.723 14.478 18.097 25.851 32.168 32.404l0.406 0.17 297.988 136.192c4.978 2.33 10.809 3.689 16.957 3.689 22.542 0 40.815-18.274 40.815-40.815 0-6.157-1.363-11.996-3.805-17.231l0.105 0.251z" />
<glyph unicode="&#xe909;" glyph-name="direction-down" d="M387.657 297.582h-149.943l268.983-363.447 268.361 363.447h-149.943v662.418h-237.714z" />
<glyph unicode="&#xe90a;" glyph-name="direction-left" d="M393.852 581.402v-130.648l-323.231 254.694 323.231 254.694v-133.332h201.869c190.652-0.080 345.184-154.613 345.265-345.257v-544.599h-245.372v544.486c0 0.042 0 0.092 0 0.141 0 55.15-44.708 99.858-99.858 99.858-0.050 0-0.099 0-0.149 0h0.008z" />
<glyph unicode="&#xe90b;" glyph-name="direction-right" d="M617.754 581.402v-130.648l323.231 254.694-323.231 254.694v-133.332h-201.869c-190.652-0.080-345.184-154.613-345.265-345.257v-544.599h245.266v544.486c0 0.042 0 0.092 0 0.141 0 55.15 44.708 99.858 99.858 99.858 0.050 0 0.099 0 0.149 0h-0.008z" />
<glyph unicode="&#xe90c;" glyph-name="direction-up" d="M387.657 596.553h-149.943l268.983 363.447 268.361-363.447h-149.943v-662.418h-237.714z" />
<glyph unicode="&#xe90d;" glyph-name="edit" d="M722.827 752.274l161.938-161.938c3.163-3.174 5.119-7.554 5.119-12.39s-1.956-9.216-5.12-12.391v0.001l-392.046-392.046-166.619-18.491c-1.175-0.14-2.536-0.22-3.915-0.22-19.293 0-34.933 15.64-34.933 34.933 0 1.314 0.073 2.612 0.214 3.888l-0.014-0.157 18.491 166.619 392.046 392.046c3.184 3.225 7.605 5.222 12.493 5.222 4.815 0 9.177-1.938 12.348-5.077l-0.001 0.001zM1013.672 793.381l-87.596 87.625c-12.696 12.645-30.209 20.462-49.547 20.462s-36.851-7.817-49.549-20.465l-63.574-63.545c-3.163-3.174-5.119-7.554-5.119-12.39s1.956-9.216 5.12-12.391v0.001l161.938-161.938c3.174-3.163 7.554-5.119 12.39-5.119s9.216 1.956 12.391 5.12h-0.001l63.547 63.547c12.645 12.696 20.462 30.209 20.462 49.547s-7.817 36.851-20.465 49.549l0.002-0.002zM689.445 280.093v-182.769h-574.552v574.523h412.526c5.95 0.046 11.332 2.438 15.276 6.294l71.822 71.822c3.924 3.901 6.353 9.303 6.353 15.272 0 11.892-9.641 21.533-21.533 21.533-0.032 0-0.065 0-0.097 0h-513.048c-47.602 0-86.192-38.589-86.192-86.192v0-631.954c0-47.602 38.589-86.192 86.192-86.192v0h631.954c47.602 0 86.192 38.589 86.192 86.192v0 283.297c-0.028 11.904-9.684 21.543-21.592 21.543-5.936 0-11.312-2.395-15.215-6.272l-71.796-71.825c-3.853-3.94-6.244-9.322-6.29-15.263v-0.009z" />
<glyph unicode="&#xe90e;" glyph-name="envelope" d="M995.118 577.523c1.995 1.557 4.538 2.496 7.3 2.496 6.547 0 11.862-5.278 11.92-11.812v-405.142c-0.015-52.517-42.584-95.086-95.099-95.101h-824.138c-52.517 0.015-95.086 42.584-95.101 95.099v404.954c0 0.017 0 0.038 0 0.059 0 6.54 5.302 11.842 11.842 11.842 2.801 0 5.374-0.972 7.402-2.598l-0.023 0.018c44.373-34.475 103.214-78.244 305.283-225.044 41.8-30.51 112.325-94.707 182.666-94.287 70.735-0.604 142.625 64.985 182.85 94.287 202.069 146.773 260.7 190.753 305.099 225.227zM507.143 321.575c45.949-0.788 112.141 57.764 145.408 82.025 262.879 190.779 282.887 207.426 343.513 254.976 11.136 8.759 18.222 22.234 18.222 37.364 0 0.027 0 0.054 0 0.081v-0.004 37.599c-0.015 52.507-42.569 95.071-95.072 95.101h-824.113c-52.517-0.015-95.086-42.584-95.101-95.099v-37.653c0.021-15.149 7.099-28.64 18.122-37.366l0.1-0.076c60.626-47.262 80.633-64.197 343.513-254.976 33.293-24.182 99.459-82.813 145.408-82.025z" />
<glyph unicode="&#xe90f;" glyph-name="exclamation" d="M512.022 960c-0.013 0-0.028 0-0.043 0-282.782 0-512.022-229.24-512.022-512.022s229.24-512.022 512.022-512.022c282.782 0 512.022 229.24 512.022 512.022v0c0 0.207 0 0.452 0 0.696 0 282.397-228.928 511.326-511.326 511.326-0.23 0-0.459 0-0.689 0h0.036zM471.050 666.453h78.291c10.995-0.76 19.726-9.491 20.482-20.417l0.004-0.069-10.221-232.089c-0.76-10.995-9.491-19.726-20.417-20.482l-0.069-0.004h-57.848c-10.995 0.76-19.726 9.491-20.482 20.417l-0.004 0.069-10.221 232.089c-0.012 0.252-0.018 0.548-0.018 0.845 0 10.858 8.802 19.66 19.66 19.66 0.297 0 0.593-0.007 0.886-0.020l-0.042 0.001zM512.022 229.547c-37.714 0-68.287 30.573-68.287 68.287s30.573 68.287 68.287 68.287c37.714 0 68.287-30.573 68.287-68.287v0c-0.099-37.674-30.613-68.188-68.278-68.287h-0.009z" />
<glyph unicode="&#xe910;" glyph-name="eye" d="M1024.892 477.267c-95.692 188.535-287.456 315.861-509.127 317.571l-0.231 0.001c-221.888-1.755-413.628-129.081-507.818-314.34l-1.506-3.265c-3.927-7.604-6.23-16.598-6.23-26.129s2.303-18.524 6.382-26.454l-0.152 0.325c95.687-188.525 287.436-315.848 509.092-317.571l0.233-0.001c221.875 1.716 413.623 128.993 507.851 314.21l1.506 3.263c3.927 7.604 6.23 16.598 6.23 26.129s-2.303 18.524-6.382 26.454l0.152-0.325zM515.567 193.189c-142.297 0-257.652 115.355-257.652 257.652s115.355 257.652 257.652 257.652c142.297 0 257.652-115.355 257.652-257.652v0c-0.094-142.226-115.413-257.486-257.652-257.486-0.012 0-0.023 0-0.035 0h0.002zM515.567 622.84c-16.23-0.228-31.796-2.686-46.528-7.081l1.208 0.309c10.449-14.033 16.728-31.708 16.728-50.85 0-47.305-38.348-85.653-85.653-85.653-19.142 0-36.817 6.279-51.078 16.89l0.228-0.162c-3.803-13.471-5.989-28.942-5.989-44.924 0-94.701 76.77-171.47 171.47-171.47s171.47 76.77 171.47 171.47c0 94.701-76.77 171.47-171.47 171.47-0.112 0-0.225 0-0.337 0h0.017z" />
<glyph unicode="&#xe911;" glyph-name="flag-checkered" horiz-adv-x="1008" d="M470.339 580.144v-136.249c52.194-11.808 98.589-31.198 147.184-44.613v136.354c-51.984 11.738-98.763 31.128-147.184 44.508zM916.922 826.126c-67.975-35.735-147.804-58.748-232.483-63.718l-1.586-0.074c-106.973 0-195.64 69.592-330.352 69.592-0.446 0.002-0.974 0.003-1.503 0.003-48.288 0-94.52-8.802-137.18-24.89l2.678 0.886c4.719 11.921 7.455 25.731 7.455 40.18 0 61.858-50.146 112.004-112.004 112.004s-112.004-50.146-112.004-112.004c0-37.929 18.853-71.455 47.7-91.717l0.357-0.238v-772.079c0-0.031 0-0.068 0-0.105 0-26.453 21.444-47.897 47.897-47.897 0.037 0 0.074 0 0.111 0h31.995c0.031 0 0.068 0 0.105 0 26.453 0 47.897 21.444 47.897 47.897 0 0.037 0 0.074 0 0.111v-0.006 188.653c64.263 28.007 139.133 44.302 217.808 44.302 3.863 0 7.716-0.039 11.56-0.117l-0.574 0.009c107.183 0 195.64-69.592 330.352-69.592 92.314 0.767 177.339 31.35 246.076 82.573l-1.107-0.789c16.764 11.661 27.6 30.831 27.6 52.532 0 0.090 0 0.18-0.001 0.27v-0.014 486.235c0 0.015 0 0.033 0 0.051 0 35.29-28.608 63.897-63.897 63.897-9.776 0-19.039-2.195-27.324-6.12l0.388 0.165zM323.015 309.078c-54.467-5.68-104.335-17.387-151.565-34.583l4.38 1.394v140.966c42.956 16.995 92.808 29.333 144.724 34.729l2.46 0.207zM911.752 578.083c-42.339-20.264-91.603-36.788-143.109-47.111l-4.075-0.681v-142.188c55.269 7.235 105.083 25.597 148.833 52.794l-1.579-0.915v-141c-41.568-28.65-91.63-48.028-145.723-54.053l-1.461-0.132v143.236c-14.578-2.226-31.397-3.497-48.514-3.497-35.204 0-69.152 5.378-101.067 15.357l2.396-0.646v-134.782c-39.681 15.070-88.913 29.724-139.384 41.108l-7.8 1.479v136.913c-28.923 6.702-62.135 10.544-96.245 10.544-17.949 0-35.65-1.064-53.043-3.132l2.104 0.204v139.952c-55.567-9.624-104.989-24.18-151.859-43.643l4.675 1.72v141.14c42.63 19.845 92.131 35.191 143.963 43.58l3.29 0.439v-143.236c14.415 2.164 31.050 3.4 47.974 3.4 35.396 0 69.53-5.406 101.62-15.438l-2.41 0.649v134.782c39.852-15.2 89.089-29.857 139.593-41.159l7.591-1.427v-136.703c26.232-6.449 56.348-10.149 87.328-10.149 21.133 0 41.863 1.721 62.059 5.032l-2.203-0.298v143.725c55.734 10.759 105.012 26.323 151.661 46.775l-4.547-1.777z" />
<glyph unicode="&#xe912;" glyph-name="heart" d="M911.782 837.993c-45.666 38.215-105.030 61.422-169.815 61.422-78.676 0-149.358-34.227-197.968-88.602l-0.225-0.256-38.852-40.93-38.852 40.93c-48.831 54.639-119.513 88.87-198.19 88.87-64.787 0-124.153-23.212-170.235-61.773l0.417 0.339c-60.306-54.088-98.071-132.255-98.071-219.243 0-77.354 29.864-147.733 78.692-200.236l-0.166 0.181 381.621-402.944c11.156-12.011 27.035-19.502 44.664-19.502s33.509 7.491 44.629 19.464l0.035 0.038 381.53 402.944c48.804 52.325 78.765 122.779 78.765 200.231 0 86.916-37.73 165.019-97.706 218.825l-0.274 0.242z" />
<glyph unicode="&#xe913;" glyph-name="house-damage" d="M505.079 687.757l-383.258-338.061c-2.746-1.976-5.887-3.921-9.161-5.648l-0.443-0.213v-324.361c0-0.010 0-0.023 0-0.035 0-15.484 12.552-28.036 28.036-28.036 0.012 0 0.025 0 0.037 0h261.718l-65.289 127.718 182.59 112.252-105.507 209.108 259.672-239.898-182.731-112.252 70.020-96.892h309.001c0.010 0 0.023 0 0.035 0 15.484 0 28.036 12.552 28.036 28.036 0 0.012 0 0.025 0 0.037v-0.002 324.255c-3.578 1.879-6.592 3.741-9.469 5.785l0.253-0.17zM1000.872 474.977l-102.93 90.924v239.298c0 0.010 0 0.023 0 0.035 0 15.484-12.552 28.036-28.036 28.036-0.012 0-0.025 0-0.037 0h-112.214c-0.010 0-0.023 0-0.035 0-15.484 0-28.036-12.552-28.036-28.036 0-0.012 0-0.025 0-0.037v0.002-90.677l-177.576 156.778c-12.345 11.199-28.809 18.054-46.874 18.054s-34.529-6.855-46.933-18.106l0.058 0.052-448.971-396.323c-5.688-5.186-9.243-12.627-9.243-20.899 0-7.211 2.702-13.791 7.149-18.783l-0.025 0.028 37.535-41.772c5.186-5.688 12.627-9.243 20.899-9.243 7.211 0 13.791 2.702 18.783 7.149l-0.028-0.025 402.185 354.798c4.935 4.316 11.438 6.949 18.556 6.949s13.621-2.633 18.589-6.977l-0.033 0.028 402.22-354.728c4.964-4.422 11.544-7.124 18.755-7.124 8.271 0 15.713 3.555 20.879 9.221l37.555 41.794c4.433 4.938 7.144 11.501 7.144 18.696 0 8.285-3.594 15.731-9.308 20.864l-0.026 0.023z" />
<glyph unicode="&#xe914;" glyph-name="lock" d="M875.159 503.657h-48.911v146.673c0 171.026-138.644 309.67-309.67 309.67s-309.67-138.644-309.67-309.67v0-146.673h-48.911c-54-0.034-97.762-43.818-97.762-97.822v0-391.168c0.034-53.979 43.783-97.728 97.759-97.762h717.165c53.979 0.034 97.728 43.783 97.762 97.759v391.171c0 54.004-43.762 97.788-97.759 97.822h-0.003zM663.251 503.657h-293.346v146.673c0 81.005 65.668 146.673 146.673 146.673s146.673-65.668 146.673-146.673v0z" />
<glyph unicode="&#xe915;" glyph-name="map-marker-alt" d="M464.684-33.315c-287.709 417.086-341.098 459.882-341.098 613.164 0 209.952 170.199 380.151 380.151 380.151s380.151-170.199 380.151-380.151v0c0-153.282-53.389-196.078-341.098-613.129-8.695-12.43-22.943-20.458-39.065-20.458-16.108 0-30.344 8.013-38.94 20.27l-0.101 0.152zM503.737 421.447c87.483 0 158.402 70.919 158.402 158.402s-70.919 158.402-158.402 158.402c-87.483 0-158.402-70.919-158.402-158.402v0c0-87.483 70.919-158.402 158.402-158.402v0z" />
<glyph unicode="&#xe916;" glyph-name="map-signs" d="M1014.627 790.621l-86.621 86.621c-11.575 11.574-27.561 18.736-45.22 18.747h-306.774v32.026c0 17.665-14.32 31.985-31.985 31.985v0h-64.010c-17.665 0-31.985-14.32-31.985-31.985v0-31.985h-336.003c-26.52 0-48.018-21.498-48.018-48.018v0-160.005c0-26.52 21.498-48.018 48.018-48.018v0h770.713c17.661 0.016 33.646 7.177 45.223 18.747l86.621 86.621c5.785 5.788 9.363 13.782 9.363 22.611s-3.578 16.824-9.363 22.611v0zM448.031-31.974c0-17.665 14.32-31.985 31.985-31.985v0h64.010c17.665 0 31.985 14.32 31.985 31.985v0 223.974h-127.979zM912.013 511.887h-336.003v64.134h-127.979v-64.134h-306.772c-17.661-0.016-33.646-7.177-45.223-18.747l-86.621-86.498c-5.785-5.788-9.363-13.782-9.363-22.611s3.578-16.824 9.363-22.611l86.621-86.621c11.575-11.574 27.561-18.736 45.22-18.747h770.756c26.52 0 48.018 21.498 48.018 48.018v0 159.923c-0.070 26.467-21.542 47.895-48.018 47.895 0 0 0 0 0 0v0z" />
<glyph unicode="&#xe917;" glyph-name="pencil-ruler" d="M218.908 471.893l269.198 269.141-88.292 88.235-123.335-123.392c-2.864-2.876-6.828-4.656-11.207-4.656s-8.343 1.78-11.207 4.656l-22.415 22.415c-2.876 2.864-4.656 6.828-4.656 11.207s1.78 8.343 4.656 11.207l123.336 123.393-67.243 67.3c-11.479 11.481-27.339 18.583-44.857 18.583s-33.378-7.102-44.857-18.583l-179.428-179.428c-11.481-11.479-18.583-27.339-18.583-44.857s7.102-33.378 18.583-44.857l200.306-200.363zM995.84 705.479c17.378 17.386 28.125 41.401 28.125 67.925s-10.748 50.539-28.126 67.926l-90.51 90.51c-17.389 17.395-41.415 28.154-67.954 28.154s-50.565-10.759-67.954-28.154v0l-92.16-91.876 226.418-226.418 92.16 91.932zM632.149 794.453l-593.977-593.806-37.547-214.869c-0.402-2.194-0.632-4.718-0.632-7.296 0-23.438 19.001-42.439 42.439-42.439 2.595 0 5.137 0.233 7.603 0.679l-0.259-0.039 214.869 37.66 593.92 593.863zM1005.397 223.63l-67.243 67.356-123.335-123.335c-2.864-2.876-6.828-4.656-11.207-4.656s-8.343 1.78-11.207 4.656l-22.415 22.415c-2.863 2.871-4.633 6.832-4.633 11.207s1.77 8.336 4.633 11.207v0l123.449 123.335-88.405 88.292-269.198-269.084 200.42-200.42c11.479-11.481 27.339-18.583 44.857-18.583s33.378 7.102 44.857 18.583l179.428 179.371c11.481 11.479 18.583 27.339 18.583 44.857s-7.102 33.378-18.583 44.857v0z" />
<glyph unicode="&#xe918;" glyph-name="plus" d="M950.855 557.709h-329.145v329.145c0 40.397-32.748 73.145-73.145 73.145v0h-73.145c-40.397 0-73.145-32.748-73.145-73.145v0-329.145h-329.127c-40.391 0-73.135-32.738-73.145-73.127v-73.146c0-40.397 32.748-73.145 73.145-73.145h329.145v-329.145c0-40.397 32.748-73.145 73.145-73.145h73.145c40.397 0 73.145 32.748 73.145 73.145v0 329.145h329.127c40.397 0 73.145 32.748 73.145 73.145v73.145c-0.010 40.389-32.755 73.127-73.145 73.127v0z" />
<glyph unicode="&#xe919;" glyph-name="route" d="M832.009 320.030h-192.039c-35.345 0-63.997 28.652-63.997 63.997s28.652 63.997 63.997 63.997v0h191.991s191.991 214.017 191.991 319.985c0 106.034-85.957 191.991-191.991 191.991s-191.991-85.957-191.991-191.991v0c0-51.023 44.391-126.784 90.622-191.991h-90.622c-106.034 0-191.991-85.957-191.991-191.991s85.957-191.991 191.991-191.991v0h191.991c35.345 0 63.997-28.652 63.997-63.997s-28.652-63.997-63.997-63.997v0h-460.952c-31.924-48.625-63.040-90.375-96.362-130.218l1.77 2.176h555.592c106.034 0 191.991 85.957 191.991 191.991s-85.957 191.991-191.991 191.991v0zM832.009 832.006c35.345 0 63.997-28.652 63.997-63.997s-28.652-63.997-63.997-63.997c-35.345 0-63.997 28.652-63.997 63.997v0c0 0.014 0 0.031 0 0.048 0 35.318 28.631 63.949 63.949 63.949 0.017 0 0.034 0 0.051 0h-0.003zM191.991 448.024c-106.022-0.028-191.963-85.968-191.991-191.988v-0.003c0-106.016 191.991-319.985 191.991-319.985s191.991 214.017 191.991 319.985c-0.028 106.022-85.968 191.963-191.988 191.991h-0.003zM191.991 192.036c-35.345 0-63.997 28.652-63.997 63.997s28.652 63.997 63.997 63.997c35.345 0 63.997-28.652 63.997-63.997v0c0-0.029 0-0.063 0-0.097 0-35.318-28.631-63.949-63.949-63.949-0.017 0-0.034 0-0.051 0h0.003z" />
<glyph unicode="&#xe91a;" glyph-name="search" d="M1009.903 74.684l-199.373 199.236c-8.673 8.648-20.642 13.995-33.86 13.995-0.096 0-0.192 0-0.288-0.001h-32.582c54.868 69.788 87.997 158.922 87.997 255.794 0 229.628-186.15 415.778-415.778 415.778s-415.778-186.15-415.778-415.778c0-229.628 186.15-415.778 415.778-415.778 96.872 0 186.006 33.129 256.691 88.676l-0.896-0.679v-32.597c0-0.081-0.001-0.177-0.001-0.273 0-13.218 5.347-25.187 13.997-33.861l199.372-199.372c8.658-8.71 20.647-14.101 33.894-14.101s25.236 5.391 33.892 14.099l56.595 56.595c8.848 8.747 14.327 20.886 14.327 34.304 0 13.248-5.342 25.249-13.989 33.966l0.003-0.003zM415.983 288.051c-141.385 0-256 114.615-256 256s114.615 256 256 256c141.385 0 256-114.615 256-256v0c0-0.051 0-0.111 0-0.171 0-141.291-114.539-255.829-255.829-255.829-0.072 0-0.144 0-0.216 0h0.011z" />
<glyph unicode="&#xe91b;" glyph-name="star" d="M451.914 908.998l-123.574-256.231-276.48-41.224c-29.659-5.161-51.923-30.709-51.923-61.457 0-17.298 7.046-32.95 18.425-44.243l0.004-0.004 200.043-199.317-47.302-281.567c-0.667-3.38-1.048-7.266-1.048-11.241 0-33.586 27.227-60.812 60.812-60.812 10.245 0 19.898 2.533 28.367 7.007l-0.331-0.16 247.346 132.955 247.346-132.955c8.127-4.298 17.764-6.82 27.99-6.82 33.604 0 60.845 27.241 60.845 60.845 0 3.954-0.377 7.819-1.097 11.562l0.061-0.382-47.302 281.567 200.175 199.383c11.382 11.297 18.429 26.949 18.429 44.247 0 30.748-22.264 56.296-51.55 61.403l-0.373 0.054-276.48 41.224-123.772 256.165c-9.829 20.531-30.44 34.46-54.305 34.46s-44.476-13.928-54.149-34.099l-0.156-0.361z" />
<glyph unicode="&#xe91c;" glyph-name="times-circle" d="M512 960c-282.77 0-512-229.23-512-512s229.23-512 512-512c282.77 0 512 229.23 512 512v0c0 0.029 0 0.063 0 0.098 0 282.716-229.186 511.902-511.902 511.902-0.035 0-0.069 0-0.104 0h0.006zM763.033 313.608c4.493-4.487 7.273-10.689 7.273-17.54s-2.78-13.053-7.273-17.54v0l-81.756-81.43c-4.487-4.493-10.689-7.273-17.54-7.273s-13.053 2.78-17.54 7.273v0l-134.197 135.435-134.392-135.435c-4.487-4.493-10.689-7.273-17.54-7.273s-13.053 2.78-17.54 7.273v0l-81.43 81.756c-4.493 4.487-7.273 10.689-7.273 17.54s2.78 13.053 7.273 17.54v0l135.435 134.197-135.435 134.392c-4.493 4.487-7.273 10.689-7.273 17.54s2.78 13.053 7.273 17.54v0l81.756 81.756c4.487 4.493 10.689 7.273 17.54 7.273s13.053-2.78 17.54-7.273v0l134.197-135.63 134.392 135.435c4.487 4.493 10.689 7.273 17.54 7.273s13.053-2.78 17.54-7.273v0l81.756-81.756c4.493-4.487 7.273-10.689 7.273-17.54s-2.78-13.053-7.273-17.54v0l-135.63-134.197z" />
<glyph unicode="&#xe91d;" glyph-name="trash-alt" d="M114.457 18.911c0-53.763 43.583-97.346 97.346-97.346v0h584.275c53.763 0 97.346 43.583 97.346 97.346v0 681.489h-778.967zM666.095 538.145c0 17.924 14.53 32.454 32.454 32.454s32.454-14.53 32.454-32.454v0-454.326c0-17.924-14.53-32.454-32.454-32.454s-32.454 14.53-32.454 32.454v0zM471.37 538.145c0 17.924 14.53 32.454 32.454 32.454s32.454-14.53 32.454-32.454v-454.326c0-17.924-14.53-32.454-32.454-32.454s-32.454 14.53-32.454 32.454v0zM276.645 538.145c0 17.924 14.53 32.454 32.454 32.454s32.454-14.53 32.454-32.454v0-454.326c0-17.924-14.53-32.454-32.454-32.454s-32.454 14.53-32.454 32.454v0zM925.729 895.092h-243.382l-19.060 37.954c-8.165 16.107-24.6 26.954-43.569 26.954-0.012 0-0.024 0-0.035 0h-231.819c-0.061 0-0.133 0-0.205 0-18.866 0-35.196-10.863-43.074-26.676l-0.126-0.279-19.060-37.954h-243.415c-17.915 0-32.438-14.523-32.438-32.438v0-64.908c0-17.915 14.523-32.438 32.438-32.438v0h843.743c17.915 0 32.438 14.523 32.438 32.438v64.908c0 17.915-14.523 32.438-32.438 32.438v0z" />
<glyph unicode="&#xe91e;" glyph-name="user-alt" d="M512 383.965c159.068 0 288.017 128.95 288.017 288.017s-128.95 288.017-288.017 288.017c-159.068 0-288.017-128.95-288.017-288.017v0c0-159.068 128.95-288.017 288.017-288.017v0zM767.98 319.97h-110.196c-42.769-20.206-92.909-32.002-145.804-32.002s-103.034 11.796-147.932 32.901l2.128-0.899h-110.196c-141.374 0-255.98-114.606-255.98-255.98v0-31.998c0.022-53.006 42.986-95.97 95.99-95.993h832.017c53.006 0.022 95.97 42.986 95.993 95.99v32c0 0.012 0 0.026 0 0.039 0 141.374-114.606 255.98-255.98 255.98-0.014 0-0.028 0-0.042 0h0.002z" />
</font>
</defs>
</svg>
